<?xml version="1.0" encoding="UTF-8"?>
<svg id="icons" xmlns="http://www.w3.org/2000/svg" version="1.1" viewBox="0 0 512 512">
  <!-- Generator: Adobe Illustrator 29.8.1, SVG Export Plug-In . SVG Version: 2.1.1 Build 2)  -->
  <defs>
    <style>
      .st0 {
        fill: #fff;
      }
    </style>
  </defs>
  <path class="st0" d="M412.2,118.7c-3.2-1.7-6.4-3.5-9.5-5.5-8.9-5.9-17-12.8-24.3-20.6-18.1-20.7-24.9-41.7-27.4-56.4h.1c-2.1-12.2-1.2-20.1-1.1-20.1h-82.4v318.8c0,4.3,0,8.5-.2,12.7,0,.5,0,1,0,1.6,0,.2,0,.5,0,.7v.2c-1.8,23.2-15,44.1-35.2,55.6-10.4,5.9-22.2,9-34.1,9-38.4,0-69.5-31.3-69.5-70s31.1-70,69.5-70c7.3,0,14.5,1.1,21.4,3.4v-83.9c-42.3-5.5-85.1,7-117.9,34.5-14.2,12.3-26.2,27.1-35.3,43.5-3.5,6-16.6,30.1-18.2,69.2-1,22.2,5.7,45.2,8.9,54.7v.2c2,5.6,9.8,24.7,22.4,40.8,10.2,12.9,22.2,24.3,35.7,33.7v-.2l.2.2c39.9,27.1,84.2,25.3,84.2,25.3,7.7-.3,33.3,0,62.5-13.8,32.3-15.3,50.7-38.1,50.7-38.1,11.8-13.6,21.1-29.2,27.6-45.9,7.5-19.6,10-43.1,10-52.5v-169.1c1,.6,14.3,9.4,14.3,9.4,0,0,19.2,12.3,49.1,20.3,21.5,5.7,50.4,6.9,50.4,6.9v-81.8c-10.1,1.1-30.7-2.1-51.8-12.6Z"/>
</svg>