<?xml version="1.0" encoding="UTF-8"?>
<svg id="Layer_1" xmlns="http://www.w3.org/2000/svg" version="1.1" xmlns:x="ns_extend;" viewBox="0 0 219.6 50">
  <!-- Generator: Adobe Illustrator 29.8.1, SVG Export Plug-In . SVG Version: 2.1.1 Build 2)  -->
  <defs>
    <style>
      .st0 {
        fill: #fff;
        fill-rule: evenodd;
      }
    </style>
  </defs>
  <path class="st0" d="M43.5,10.9c-2.5-.1-5,.6-7.3,1.9q-1.7,1-1.7-1.1V2.2C34.5.3,34.2,0,32.3,0h-1.7C28.8,0,28.7,0,28.7,1.8v11.3h0v11.3c0,.7-.1,1.4.5,1.8,1.2.9,2.5,1.8,3.9,2.5.7.4,1.3,0,1.4-.8,0-.8,0-1.5,0-2.3,0-1.8.5-3.5,1.5-5,3.4-5.3,10.7-5.5,14.4-.5,2,2.6,2.3,5.6,1.8,8.7-.4,2.3-1.6,4.1-3.6,5.5-3.3,2.3-6.9,2.5-10.6,1.5-3.5-1-6.5-3-9.4-5-2.2-1.5-4.2-3.2-6.4-4.7-3.6-2.6-7.7-3.5-12.1-2.5C5.4,24.7,2,27.5.1,31.9c-.6,1.3-.2,1.8,1.2,1.9h3.6c.8,0,1.4-.3,1.7-1,0-.2.3-.5.4-.7,1.6-2.6,4.5-3.8,7.5-3,1.3.4,2.6.9,3.8,1.7,2.7,1.7,5.2,3.5,7.7,5.4,5.1,3.8,10.5,6.5,17.2,5.9,4.5-.4,8.3-2,11.2-5.5,2.3-2.7,3.4-5.9,3.4-9.5s-.5-6.2-2.2-8.9c-2.5-4.7-6.7-7.1-12.1-7.3Z"/>
  <path class="st0" d="M149.4,25.8c-.7-.9-.7-1,.1-1.8,1.2-1.3,2.4-2.5,3.7-3.8,2.1-2.2,4.3-4.3,6.4-6.5.3-.3.8-.5.5-1.1-.2-.5-.7-.6-1.3-.6-1.2,0-2.4.1-3.6,0-.9-.1-1.5.3-2.2.9-3.8,4-7.6,7.9-11.4,11.9-.4.4-.7,1.1-1.2.9-.2-.1-.3-.1-.3-.3V1.8c-.1-.9-.4-1.2-1.2-1.3h-3.5c-.6,0-1,.4-1,1.1v38.3c0,1.2.2,1.4,1.3,1.4h3c1,0,1.4-.4,1.4-1.4v-.5h0c0-.6.1-1.2,0-1.8v-1.4s-.1-1.1.2-2.1c.1-.4.3-.7.5-1.1.5-.7,1.7-2,2.8-3,1.5-1.4,1.2-1.5,3.2,1,2.4,3.1,4.8,6.1,7.2,9.2.6.8,1.3,1.1,2.2,1.1.9,0,1.8,0,2.6,0s1.4.2,1.8-.6c.3-.7-.4-1.2-.7-1.7-3.7-4.3-7.1-8.7-10.5-13.2Z"/>
  <path class="st0" d="M85,33.7c-3.5,3.9-10.1,4.5-14.1-.2-3.6-4.2-3.2-10.9.8-14.4,1.8-1.6,3.9-2.4,5.8-2.3,4,0,6.6,1.5,8.5,4.4,2.4,3.8,2,9-1,12.5ZM77.9,11.6c-9.6,0-15.3,7.6-15.3,15.2s5.6,15.1,15.1,15.2c9.6,0,15.5-7.2,15.5-15.2,0-7.8-5.7-15.2-15.3-15.2Z"/>
  <path class="st0" d="M123,26.9c0,3.8-1.6,6.9-5.1,8.8-5.3,2.9-12.1,0-13.7-6.3-.7-2.8-.4-5.6,1.1-8.1,1.6-2.8,4.1-4.3,7.4-4.5,6.5-.6,10.6,5.3,10.3,10.1ZM113.5,11.6c-9.3,0-15.3,7.1-15.3,15.2s6,15.3,15.2,15.2c10.1,0,15.5-8,15.3-15.2.3-7.5-5.5-15.2-15.2-15.2Z"/>
  <path class="st0" d="M217.9,12.1h-2.2q-1.7,0-2.3,1.5c-2.3,6-4.7,12-7,18,0,.1-.1.2-.1.3-.1.2-.2.5-.3.6-.2.4-.5.4-.7.4s-.4-.3-.4-.3l-.5-1.1c-2.5-5.6-5-11.3-7.5-16.9-1.3-2.8-.6-2.5-3.8-2.5h-2.2c-.8.1-1,.5-.7,1.2.2.5.4,1,.7,1.5,3.7,8,7.3,15.9,11,23.8.7,1.5.5,2.5-.3,3.8-1.2,1.9-2.8,2.7-5,2.4-.7,0-1.4-.3-2.1-.6-1.5-.5-1.6-.5-2.2.9-.3.5-.4,1.1-.7,1.7-.7,1.3-.2,1.6.9,2.1,1.8.7,3.6,1,5.5,1,3.3,0,5.8-1.4,7.7-4,.9-1.3,1.6-2.7,2.2-4.2,2.6-6.4,5.2-12.7,7.9-19.1,1.2-2.8,2.3-5.7,3.5-8.5.7-1.7.5-1.9-1.4-2Z"/>
  <path class="st0" d="M181.4,25.2c-1.9-.8-4-1.3-6-1.9-1-.3-2-.7-2.8-1.3-1.8-1.3-1.8-3.4.1-4.6,1.1-.7,2.4-.9,3.6-.8,2.2.2,4.2.8,6.1,1.8.3.2.7.4,1,.5.6.3,1.2.2,1.6-.4.4-.7.8-1.3,1.2-2,.7-1.2.6-1.6-.6-2.2-2.9-1.6-6-2.7-9.4-2.6h-1.7c-2.6.2-4.9,1.2-6.7,3.1-3,3.1-3.2,9.1,1.7,11.8,1.2.6,2.4,1.2,3.6,1.6,1.2.4,2.4.7,3.6,1.1,1.3.4,2.6.8,3.8,1.6,1.6,1.2,1.8,3.1.4,4.5-.8.9-1.9,1.2-3.1,1.3-3.3.3-6.3-.6-8.9-2.4-2.3-1.6-2.2-.9-3.3.6-1.7,2.3-1.6,2.4.9,3.9,3.5,2.1,7.4,3.1,11.5,2.8,2.6-.2,4.8-1,6.7-2.8,3-2.8,3.6-8.2.7-11.1-1-1-2.5-1.8-4-2.5Z"/>
</svg>